<?xml version="1.0" encoding="UTF-8" standalone="no"?>
<svg
   xmlns:dc="http://purl.org/dc/elements/1.1/"
   xmlns:cc="http://creativecommons.org/ns#"
   xmlns:rdf="http://www.w3.org/1999/02/22-rdf-syntax-ns#"
   xmlns:svg="http://www.w3.org/2000/svg"
   xmlns="http://www.w3.org/2000/svg"
   viewBox="0 0 425.33334 177.26666"
   height="177.26666"
   width="425.33334"
   xml:space="preserve"
   id="svg2"
   version="1.1"><metadata
     id="metadata8"><rdf:RDF><cc:Work
         rdf:about=""><dc:format>image/svg+xml</dc:format><dc:type
           rdf:resource="http://purl.org/dc/dcmitype/StillImage" /></cc:Work></rdf:RDF></metadata><defs
     id="defs6" /><g
     transform="matrix(1.3333333,0,0,-1.3333333,0,177.26667)"
     id="g10"><g
       transform="scale(0.1)"
       id="g12"><path
         id="path14"
         style="fill:#1d364a;fill-opacity:1;fill-rule:evenodd;stroke:none"
         d="M 117.98,270.219 98.3125,320.391 78.4023,270.219 Z M 75.125,378.621 h 47.141 l 75.125,-177.73 H 144.953 L 132.098,232.41 H 64.0313 L 51.4297,200.891 H 0 l 75.125,177.73" /><path
         id="path16"
         style="fill:#1d364a;fill-opacity:1;fill-rule:evenodd;stroke:none"
         d="m 319.695,197.871 c -15.797,0 -30.8,2.438 -45,7.348 -14.203,4.922 -26.761,12.269 -37.687,22.062 l 27.226,32.598 c 17.645,-14.109 36.723,-21.168 57.227,-21.168 6.555,0 11.551,1.051 14.996,3.148 3.445,2.102 5.172,5.082 5.172,8.95 v 0.461 c 0,1.851 -0.418,3.48 -1.262,4.921 -0.844,1.418 -2.394,2.809 -4.668,4.149 -2.269,1.351 -5.289,2.648 -9.07,3.91 -3.785,1.262 -8.699,2.57 -14.75,3.91 -9.41,2.18 -18.149,4.578 -26.219,7.141 -8.062,2.609 -15.082,5.969 -21.051,10.09 -5.964,4.109 -10.671,9.238 -14.113,15.328 -3.449,6.133 -5.168,13.742 -5.168,22.769 V 324 c 0,8.238 1.555,15.797 4.664,22.645 3.106,6.89 7.645,12.855 13.613,17.898 5.965,5 13.149,8.906 21.551,11.684 8.403,2.769 17.899,4.16 28.489,4.16 15.125,0 28.613,-1.981 40.46,-5.969 11.848,-3.949 22.559,-9.836 32.141,-17.605 l -24.453,-34.665 c -8.066,5.723 -16.34,10.047 -24.828,12.985 -8.488,2.937 -16.684,4.41 -24.582,4.41 -5.879,0 -10.293,-1.09 -13.235,-3.277 -2.937,-2.18 -4.41,-4.871 -4.41,-8.067 v -0.508 c 0,-1.972 0.457,-3.73 1.383,-5.242 0.926,-1.519 2.524,-2.898 4.793,-4.168 2.27,-1.25 5.379,-2.519 9.328,-3.781 3.946,-1.262 8.949,-2.559 14.996,-3.91 10.086,-2.18 19.203,-4.738 27.356,-7.641 8.152,-2.937 15.082,-6.508 20.801,-10.711 5.71,-4.207 10.078,-9.289 13.101,-15.207 3.027,-5.972 4.539,-13.07 4.539,-21.261 v -0.508 c 0,-9.082 -1.719,-17.141 -5.168,-24.16 -3.441,-7.063 -8.277,-13.071 -14.496,-18.02 -6.215,-4.922 -13.695,-8.703 -22.433,-11.312 -8.739,-2.598 -18.489,-3.899 -29.243,-3.899" /><path
         id="path18"
         style="fill:#1d364a;fill-opacity:1;fill-rule:evenodd;stroke:none"
         d="m 519.898,197.871 c -15.8,0 -30.8,2.438 -44.996,7.348 -14.207,4.922 -26.765,12.269 -37.691,22.062 l 27.227,32.598 c 17.644,-14.109 36.714,-21.168 57.226,-21.168 6.551,0 11.555,1.051 14.996,3.148 3.449,2.102 5.168,5.082 5.168,8.95 v 0.461 c 0,1.851 -0.418,3.48 -1.258,4.921 -0.843,1.418 -2.394,2.809 -4.664,4.149 -2.273,1.351 -5.293,2.648 -9.078,3.91 -3.777,1.262 -8.695,2.57 -14.746,3.91 -9.41,2.18 -18.152,4.578 -26.215,7.141 -8.066,2.609 -15.09,5.969 -21.054,10.09 -5.961,4.109 -10.672,9.238 -14.118,15.328 -3.445,6.133 -5.164,13.742 -5.164,22.769 V 324 c 0,8.238 1.555,15.797 4.664,22.645 3.106,6.89 7.649,12.855 13.614,17.898 5.964,5 13.148,8.906 21.554,11.684 8.403,2.769 17.895,4.16 28.485,4.16 15.125,0 28.613,-1.981 40.457,-5.969 11.851,-3.949 22.566,-9.836 32.144,-17.605 l -24.457,-34.665 c -8.062,5.723 -16.336,10.047 -24.828,12.985 -8.484,2.937 -16.68,4.41 -24.582,4.41 -5.875,0 -10.289,-1.09 -13.23,-3.277 -2.942,-2.18 -4.411,-4.871 -4.411,-8.067 v -0.508 c 0,-1.972 0.461,-3.73 1.387,-5.242 0.922,-1.519 2.52,-2.898 4.785,-4.168 2.274,-1.25 5.379,-2.519 9.328,-3.781 3.95,-1.262 8.95,-2.559 15,-3.91 10.086,-2.18 19.204,-4.738 27.356,-7.641 8.152,-2.937 15.082,-6.508 20.797,-10.711 5.715,-4.207 10.078,-9.289 13.105,-15.207 3.028,-5.972 4.539,-13.07 4.539,-21.261 v -0.508 c 0,-9.082 -1.718,-17.141 -5.168,-24.16 -3.441,-7.063 -8.277,-13.071 -14.496,-18.02 -6.215,-4.922 -13.691,-8.703 -22.433,-11.312 -8.739,-2.598 -18.489,-3.899 -29.243,-3.899" /><path
         id="path20"
         style="fill:#1d364a;fill-opacity:1;fill-rule:evenodd;stroke:none"
         d="m 730.184,197.621 c -12.606,0 -23.946,1.59 -34.032,4.789 -10.082,3.192 -18.66,8.102 -25.714,14.75 -7.055,6.629 -12.481,15.031 -16.262,25.199 -3.778,10.172 -5.672,22.153 -5.672,35.93 v 99.066 h 49.914 v -98.054 c 0,-12.781 2.898,-22.231 8.742,-28.371 5.84,-6.129 13.695,-9.2 23.528,-9.2 9.832,0 17.687,2.942 23.527,8.821 5.844,5.89 8.742,15.051 8.742,27.48 v 99.324 h 49.91 v -97.804 c 0,-14.289 -1.972,-26.602 -5.922,-36.942 -3.949,-10.328 -9.496,-18.82 -16.636,-25.449 -7.149,-6.648 -15.797,-11.558 -25.965,-14.75 -10.168,-3.199 -21.559,-4.789 -34.16,-4.789" /><path
         id="path22"
         style="fill:#1d364a;fill-opacity:1;fill-rule:evenodd;stroke:none"
         d="m 958.871,292.66 c 8.402,0 14.879,1.879 19.41,5.672 4.543,3.777 6.809,8.859 6.809,15.246 v 0.5 c 0,7.063 -2.352,12.313 -7.059,15.762 -4.707,3.445 -11.172,5.168 -19.41,5.168 H 926.609 V 292.66 Z m -81.168,84.695 h 83.438 c 13.613,0 25.129,-1.679 34.539,-5.039 9.41,-3.359 17.06,-8.066 22.94,-14.117 10.42,-10.082 15.63,-23.781 15.63,-41.09 v -0.507 c 0,-13.614 -3.27,-24.872 -9.84,-33.782 -6.55,-8.898 -15.37,-15.711 -26.461,-20.422 l 42.101,-61.507 h -56.472 l -35.547,53.449 h -0.504 -20.918 v -53.449 h -48.906 v 176.464" /><path
         id="path24"
         style="fill:#1d364a;fill-opacity:1;fill-rule:evenodd;stroke:none"
         d="m 1094.79,377.355 h 141.68 v -41.593 h -93.53 v -26.723 h 84.71 v -38.57 h -84.71 v -27.981 h 94.79 v -41.597 h -142.94 v 176.464" /><path
         id="path26"
         style="fill:#1d364a;fill-opacity:1;fill-rule:evenodd;stroke:none"
         d="m 1367.68,244.25 c 14.66,0 26.47,3.871 35.42,11.602 8.95,7.726 13.4,18.738 13.4,33.019 v 0.508 c 0,14.109 -4.45,25.082 -13.4,32.902 -8.95,7.809 -20.76,11.715 -35.42,11.715 h -20 V 244.25 Z m -68.9,133.105 h 68.06 c 15.8,0 29.87,-2.14 42.23,-6.425 12.35,-4.285 22.77,-10.293 31.26,-18.028 8.48,-7.726 14.95,-16.929 19.41,-27.601 4.45,-10.672 6.68,-22.391 6.68,-35.172 v -0.5 c 0,-12.77 -2.27,-24.578 -6.81,-35.418 -4.54,-10.84 -11.09,-20.211 -19.66,-28.109 -8.57,-7.891 -19.12,-14.082 -31.64,-18.532 -12.52,-4.449 -26.68,-6.679 -42.48,-6.679 h -67.05 v 176.464" /><path
         id="path28"
         style="fill:#1d364a;fill-opacity:1;fill-rule:evenodd;stroke:none"
         d="m 1585.44,377.355 h 51.68 l 30.76,-102.093 34.03,102.601 h 42.1 l 34.03,-102.601 30.76,102.093 h 50.67 l -58.99,-177.726 h -42.61 l -35.54,101.601 -35.29,-101.601 h -42.61 l -58.99,177.726" /><path
         id="path30"
         style="fill:#1d364a;fill-opacity:1;fill-rule:evenodd;stroke:none"
         d="m 1915.73,377.355 h 49.16 V 200.891 h -49.16 v 176.464" /><path
         id="path32"
         style="fill:#1d364a;fill-opacity:1;fill-rule:evenodd;stroke:none"
         d="m 2114.16,292.66 c 8.41,0 14.88,1.879 19.41,5.672 4.54,3.777 6.81,8.859 6.81,15.246 v 0.5 c 0,7.063 -2.35,12.313 -7.06,15.762 -4.7,3.445 -11.17,5.168 -19.41,5.168 H 2081.9 V 292.66 Z m -81.17,84.695 h 83.44 c 13.62,0 25.13,-1.679 34.54,-5.039 9.41,-3.359 17.06,-8.066 22.94,-14.117 10.42,-10.082 15.63,-23.781 15.63,-41.09 v -0.507 c 0,-13.614 -3.28,-24.872 -9.83,-33.782 -6.55,-8.898 -15.38,-15.711 -26.47,-20.422 l 42.1,-61.507 h -56.47 l -35.55,53.449 h -0.5 -20.92 v -53.449 h -48.91 v 176.464" /><path
         id="path34"
         style="fill:#1d364a;fill-opacity:1;fill-rule:evenodd;stroke:none"
         d="m 2250.08,377.355 h 141.68 v -41.593 h -93.53 v -26.723 h 84.71 v -38.57 h -84.71 v -27.981 h 94.79 v -41.597 h -142.94 v 176.464" /><path
         id="path36"
         style="fill:#1d364a;fill-opacity:1;fill-rule:evenodd;stroke:none"
         d="m 2454.07,377.355 h 48.9 V 243.75 h 85.46 v -42.859 h -134.36 v 176.464" /><path
         id="path38"
         style="fill:#1d364a;fill-opacity:1;fill-rule:evenodd;stroke:none"
         d="m 2645.2,377.355 h 141.67 v -41.593 h -93.53 v -26.723 h 84.71 v -38.57 h -84.71 v -27.981 h 94.79 V 200.891 H 2645.2 v 176.464" /><path
         id="path40"
         style="fill:#1d364a;fill-opacity:1;fill-rule:evenodd;stroke:none"
         d="m 2918.5,197.871 c -15.79,0 -30.79,2.438 -44.99,7.348 -14.2,4.922 -26.77,12.269 -37.69,22.062 l 27.22,32.598 c 17.65,-14.109 36.73,-21.168 57.23,-21.168 6.55,0 11.56,1.051 15,3.148 3.44,2.102 5.17,5.082 5.17,8.95 v 0.461 c 0,1.851 -0.42,3.48 -1.26,4.921 -0.85,1.418 -2.4,2.809 -4.67,4.149 -2.27,1.351 -5.29,2.648 -9.07,3.91 -3.79,1.262 -8.7,2.57 -14.75,3.91 -9.41,2.18 -18.15,4.578 -26.22,7.141 -8.06,2.609 -15.08,5.969 -21.05,10.09 -5.97,4.109 -10.67,9.238 -14.11,15.328 -3.45,6.133 -5.17,13.742 -5.17,22.769 V 324 c 0,8.238 1.55,15.797 4.66,22.645 3.11,6.89 7.65,12.855 13.61,17.898 5.97,5 13.15,8.906 21.56,11.684 8.4,2.769 17.9,4.16 28.48,4.16 15.13,0 28.62,-1.981 40.46,-5.969 11.85,-3.949 22.57,-9.836 32.15,-17.605 l -24.46,-34.665 c -8.06,5.723 -16.34,10.047 -24.83,12.985 -8.49,2.937 -16.68,4.41 -24.57,4.41 -5.89,0 -10.3,-1.09 -13.24,-3.277 -2.94,-2.18 -4.41,-4.871 -4.41,-8.067 v -0.508 c 0,-1.972 0.46,-3.73 1.38,-5.242 0.93,-1.519 2.52,-2.898 4.79,-4.168 2.27,-1.25 5.38,-2.519 9.33,-3.781 3.95,-1.262 8.95,-2.559 15,-3.91 10.08,-2.18 19.2,-4.738 27.35,-7.641 8.15,-2.937 15.08,-6.508 20.8,-10.711 5.71,-4.207 10.08,-9.289 13.11,-15.207 3.02,-5.972 4.53,-13.07 4.53,-21.261 v -0.508 c 0,-9.082 -1.71,-17.141 -5.16,-24.16 -3.45,-7.063 -8.28,-13.071 -14.5,-18.02 -6.21,-4.922 -13.69,-8.703 -22.43,-11.312 -8.74,-2.598 -18.49,-3.899 -29.25,-3.899" /><path
         id="path42"
         style="fill:#1d364a;fill-opacity:1;fill-rule:evenodd;stroke:none"
         d="m 3118.71,197.871 c -15.8,0 -30.8,2.438 -45,7.348 -14.2,4.922 -26.77,12.269 -37.69,22.062 l 27.23,32.598 c 17.64,-14.109 36.72,-21.168 57.22,-21.168 6.56,0 11.56,1.051 15,3.148 3.45,2.102 5.17,5.082 5.17,8.95 v 0.461 c 0,1.851 -0.42,3.48 -1.26,4.921 -0.84,1.418 -2.39,2.809 -4.66,4.149 -2.27,1.351 -5.3,2.648 -9.08,3.91 -3.78,1.262 -8.7,2.57 -14.75,3.91 -9.41,2.18 -18.15,4.578 -26.21,7.141 -8.07,2.609 -15.09,5.969 -21.05,10.09 -5.97,4.109 -10.68,9.238 -14.12,15.328 -3.45,6.133 -5.17,13.742 -5.17,22.769 V 324 c 0,8.238 1.56,15.797 4.66,22.645 3.11,6.89 7.65,12.855 13.62,17.898 5.96,5 13.15,8.906 21.55,11.684 8.4,2.769 17.9,4.16 28.49,4.16 15.12,0 28.61,-1.981 40.46,-5.969 11.84,-3.949 22.56,-9.836 32.14,-17.605 l -24.45,-34.665 c -8.07,5.723 -16.35,10.047 -24.84,12.985 -8.48,2.937 -16.67,4.41 -24.58,4.41 -5.87,0 -10.29,-1.09 -13.23,-3.277 -2.94,-2.18 -4.41,-4.871 -4.41,-8.067 v -0.508 c 0,-1.972 0.46,-3.73 1.38,-5.242 0.93,-1.519 2.53,-2.898 4.79,-4.168 2.27,-1.25 5.38,-2.519 9.34,-3.781 3.94,-1.262 8.94,-2.559 14.99,-3.91 10.09,-2.18 19.2,-4.738 27.35,-7.641 8.16,-2.937 15.09,-6.508 20.8,-10.711 5.72,-4.207 10.09,-9.289 13.11,-15.207 3.03,-5.972 4.54,-13.07 4.54,-21.261 v -0.508 c 0,-9.082 -1.72,-17.141 -5.17,-24.16 -3.44,-7.063 -8.28,-13.071 -14.5,-18.02 -6.21,-4.922 -13.69,-8.703 -22.43,-11.312 -8.74,-2.598 -18.49,-3.899 -29.24,-3.899" /><path
         id="path44"
         style="fill:#56a5e0;fill-opacity:1;fill-rule:evenodd;stroke:none"
         d="M 2283.37,1043.38 2173.19,852.695 c -91.76,158.935 -183.52,317.875 -275.29,476.815 h 220.27 c 55.07,-95.38 110.13,-190.75 165.2,-286.13" /><path
         id="path46"
         style="fill:#56a5e0;fill-opacity:1;fill-rule:evenodd;stroke:none"
         d="M 1677.61,566.57 1842.82,852.664 2008,566.563 2118.17,757.25 c -110.14,190.754 -220.26,381.51 -330.39,572.26 h -220.27 l 192.72,-333.791 -55.05,-95.344 c 164.9,-285.629 -208.79,361.575 -247.8,429.135 h -220.26 c 146.73,-254.37 293.65,-508.627 440.49,-762.94" /><path
         id="path48"
         style="fill:#56a5e0;fill-opacity:1;fill-rule:evenodd;stroke:none"
         d="m 1238.46,1327.21 c 33.43,-57.93 32.71,-56.66 0,0 z m -56.41,-93.07 C 1053.56,1011.6 925.078,789.051 796.594,566.512 h 220.266 c 91.77,158.957 183.54,317.918 275.33,476.878 0,0.01 -95.61,165.54 -110.14,190.75" /><path
         id="path50"
         style="fill:#56a5e0;fill-opacity:1;fill-rule:evenodd;stroke:none"
         d="M 1237.12,757.262 1347.24,566.508 H 1567.5 L 1347.22,948.051 1237.12,757.262" /><path
         id="path52"
         style="fill:#1d364a;fill-opacity:1;fill-rule:evenodd;stroke:none"
         d="m 2767.76,60.8906 h 422.29 v -13.789 h -422.29 v 13.789" /><path
         id="path54"
         style="fill:#1d364a;fill-opacity:1;fill-rule:evenodd;stroke:none"
         d="m 516.809,103.828 h 30.41 l 24.769,-40.1991 24.778,40.1991 h 30.402 V 0 H 598.539 V 59.6289 L 572.063,18.9883 h -0.594 L 545.137,59.3398 V 0 h -28.328 v 103.828" /><path
         id="path56"
         style="fill:#1d364a;fill-opacity:1;fill-rule:evenodd;stroke:none"
         d="m 699.105,103.828 h 28.926 V 0 h -28.926 v 103.828" /><path
         id="path58"
         style="fill:#1d364a;fill-opacity:1;fill-rule:evenodd;stroke:none"
         d="m 840.766,0 c -9.297,0 -18.121,1.42969 -26.473,4.32031 -8.363,2.89844 -15.75,7.21879 -22.18,12.98049 l 16.024,19.1875 c 10.379,-8.3086 21.601,-12.457 33.672,-12.457 3.855,0 6.796,0.6171 8.82,1.8476 2.023,1.2422 3.043,2.9922 3.043,5.2695 v 0.2735 c 0,1.0781 -0.246,2.0469 -0.742,2.8867 -0.496,0.8398 -1.407,1.6602 -2.742,2.4531 -1.336,0.7891 -3.118,1.5586 -5.344,2.2891 -2.227,0.75 -5.117,1.5078 -8.676,2.3008 -5.535,1.289 -10.68,2.6992 -15.43,4.207 -4.746,1.5312 -8.875,3.5117 -12.383,5.9297 -3.511,2.4336 -6.281,5.4414 -8.304,9.0312 -2.031,3.6016 -3.043,8.0821 -3.043,13.4024 v 0.289 c 0,4.8477 0.918,9.3008 2.75,13.3282 1.82,4.0507 4.496,7.5625 8.004,10.5312 3.511,2.9417 7.734,5.2387 12.683,6.8707 4.942,1.641 10.535,2.45 16.762,2.45 8.898,0 16.836,-1.161 23.809,-3.512 6.972,-2.32 13.273,-5.7892 18.914,-10.3595 L 865.535,73.1289 c -4.742,3.3594 -9.617,5.9024 -14.609,7.6328 -4.996,1.7266 -9.817,2.5977 -14.465,2.5977 -3.457,0 -6.051,-0.6485 -7.785,-1.918 -1.727,-1.293 -2.59,-2.8828 -2.59,-4.75 v -0.3008 c 0,-1.1601 0.266,-2.1992 0.809,-3.1015 0.543,-0.8789 1.484,-1.6993 2.824,-2.4375 1.336,-0.7422 3.164,-1.4805 5.484,-2.2227 2.328,-0.7383 5.27,-1.5078 8.828,-2.3008 5.93,-1.289 11.297,-2.7968 16.09,-4.4961 4.797,-1.7422 8.879,-3.832 12.238,-6.3125 3.364,-2.4687 5.934,-5.4609 7.715,-8.9492 1.778,-3.5 2.668,-7.6797 2.668,-12.5 v -0.3086 c 0,-5.332 -1.012,-10.082 -3.043,-14.2109 -2.023,-4.1524 -4.863,-7.6914 -8.527,-10.60939 C 867.512,6.05859 863.113,3.83203 857.973,2.28906 852.828,0.769531 847.098,0 840.766,0" /><path
         id="path60"
         style="fill:#1d364a;fill-opacity:1;fill-rule:evenodd;stroke:none"
         d="m 990.43,0 c -9.297,0 -18.121,1.42969 -26.477,4.32031 -8.355,2.89844 -15.746,7.21879 -22.176,12.98049 l 16.024,19.1875 c 10.379,-8.3086 21.601,-12.457 33.672,-12.457 3.851,0 6.797,0.6171 8.827,1.8476 2.02,1.2422 3.04,2.9922 3.04,5.2695 v 0.2735 c 0,1.0781 -0.25,2.0469 -0.75,2.8867 -0.49,0.8398 -1.4,1.6602 -2.738,2.4531 -1.332,0.7891 -3.118,1.5586 -5.344,2.2891 -2.227,0.75 -5.113,1.5078 -8.676,2.3008 -5.539,1.289 -10.68,2.6992 -15.426,4.207 -4.746,1.5312 -8.879,3.5117 -12.383,5.9297 -3.511,2.4336 -6.281,5.4414 -8.304,9.0312 -2.035,3.6016 -3.047,8.0821 -3.047,13.4024 v 0.289 c 0,4.8477 0.918,9.3008 2.746,13.3282 1.828,4.0507 4.504,7.5625 8.008,10.5312 3.512,2.9417 7.738,5.2387 12.683,6.8707 4.946,1.641 10.536,2.45 16.766,2.45 8.895,0 16.835,-1.161 23.805,-3.512 6.97,-2.32 13.27,-5.7892 18.91,-10.3595 L 1015.2,73.1289 c -4.74,3.3594 -9.61,5.9024 -14.61,7.6328 -4.992,1.7266 -9.817,2.5977 -14.461,2.5977 -3.457,0 -6.055,-0.6485 -7.785,-1.918 -1.731,-1.293 -2.594,-2.8828 -2.594,-4.75 v -0.3008 c 0,-1.1601 0.266,-2.1992 0.813,-3.1015 0.539,-0.8789 1.48,-1.6993 2.82,-2.4375 1.336,-0.7422 3.164,-1.4805 5.484,-2.2227 2.328,-0.7383 5.27,-1.5078 8.828,-2.3008 5.93,-1.289 11.295,-2.7968 16.095,-4.4961 4.79,-1.7422 8.87,-3.832 12.23,-6.3125 3.37,-2.4687 5.94,-5.4609 7.72,-8.9492 1.78,-3.5 2.67,-7.6797 2.67,-12.5 v -0.3086 c 0,-5.332 -1.01,-10.082 -3.04,-14.2109 -2.03,-4.1524 -4.87,-7.6914 -8.53,-10.60939 -3.66,-2.88282 -8.06,-5.10938 -13.2,-6.65235 C 1002.49,0.769531 996.762,0 990.43,0" /><path
         id="path62"
         style="fill:#1d364a;fill-opacity:1;fill-rule:evenodd;stroke:none"
         d="m 1099.9,103.828 h 28.92 V 0 h -28.92 v 103.828" /><path
         id="path64"
         style="fill:#1d364a;fill-opacity:1;fill-rule:evenodd;stroke:none"
         d="m 1253.2,25.9609 c 3.95,0 7.59,0.75 10.85,2.2305 3.29,1.4805 6.06,3.4805 8.34,6 2.27,2.5274 4.07,5.4688 5.36,8.8281 1.29,3.3594 1.93,6.9219 1.93,10.6797 v 0.2891 c 0,3.7617 -0.64,7.3203 -1.93,10.6836 -1.29,3.3672 -3.14,6.3281 -5.51,8.9062 -2.37,2.5703 -5.2,4.6211 -8.48,6.1524 -3.27,1.539 -6.9,2.3008 -10.86,2.3008 -3.95,0 -7.56,-0.7422 -10.77,-2.2227 -3.24,-1.4883 -6.01,-3.4883 -8.34,-6.0078 -2.32,-2.5195 -4.13,-5.4688 -5.36,-8.832 -1.24,-3.3594 -1.86,-6.918 -1.86,-10.6797 v -0.3008 c 0,-3.75 0.64,-7.3086 1.93,-10.6797 1.29,-3.3594 3.11,-6.3203 5.44,-8.8984 2.33,-2.5586 5.12,-4.6094 8.41,-6.1485 3.26,-1.5312 6.9,-2.3008 10.85,-2.3008 z M 1252.98,0 c -8.01,0 -15.43,1.41016 -22.25,4.23047 -6.83,2.82031 -12.71,6.64843 -17.65,11.48833 -4.95,4.8515 -8.83,10.5429 -11.65,17.0703 -2.82,6.5195 -4.22,13.4922 -4.22,20.9101 v 0.2891 c 0,7.4219 1.4,14.4219 4.22,20.9922 2.82,6.5781 6.75,12.3086 11.79,17.2109 5.05,4.8906 10.98,8.7496 17.8,11.5706 6.83,2.82 14.25,4.226 22.26,4.226 8,0 15.42,-1.406 22.24,-4.226 6.83,-2.821 12.71,-6.6526 17.65,-11.5003 4.95,-4.8398 8.83,-10.5234 11.65,-17.0625 2.82,-6.5195 4.22,-13.4883 4.22,-20.9101 v -0.3008 c 0,-7.4063 -1.4,-14.4063 -4.22,-20.9766 -2.82,-6.582 -6.75,-12.3125 -11.79,-17.2109 -5.04,-4.9024 -10.98,-8.75002 -17.8,-11.57033 C 1268.4,1.41016 1260.99,0 1252.98,0" /><path
         id="path66"
         style="fill:#1d364a;fill-opacity:1;fill-rule:evenodd;stroke:none"
         d="m 1376.98,103.828 h 26.9 l 42.81,-54.8788 v 54.8788 h 28.34 V 0 h -25.27 l -44.45,56.9609 V 0 h -28.33 v 103.828" /><path
         id="path68"
         style="fill:#1d364a;fill-opacity:1;fill-rule:evenodd;stroke:none"
         d="m 1637.44,0 c -7.42,0 -14.39,1.33984 -20.91,4.01172 -6.52,2.66797 -12.19,6.39848 -16.99,11.19918 -4.8,4.7891 -8.6,10.4805 -11.42,17.0508 -2.82,6.5781 -4.23,13.7266 -4.23,21.4375 v 0.2891 c 0,7.5234 1.39,14.5625 4.16,21.1406 2.76,6.582 6.57,12.3125 11.42,17.2109 4.84,4.8985 10.61,8.7302 17.28,11.4882 6.68,2.774 13.97,4.16 21.88,4.16 5.34,0 10.19,-0.519 14.54,-1.558 4.35,-1.039 8.32,-2.52 11.94,-4.45 3.61,-1.929 6.87,-4.23 9.79,-6.9019 2.91,-2.6562 5.51,-5.5898 7.78,-8.75 l -21.65,-16.7578 c -2.97,3.7617 -6.23,6.7188 -9.79,8.8985 -3.56,2.1718 -7.87,3.2695 -12.91,3.2695 -3.66,0 -6.99,-0.7188 -10.01,-2.1563 -3.02,-1.4336 -5.61,-3.3828 -7.79,-5.8632 -2.17,-2.4688 -3.88,-5.3868 -5.12,-8.75 -1.23,-3.3594 -1.84,-6.918 -1.84,-10.6797 v -0.3008 c 0,-3.8477 0.61,-7.4883 1.84,-10.8985 1.24,-3.4101 2.95,-6.3515 5.12,-8.8203 2.18,-2.4687 4.77,-4.4297 7.79,-5.8593 3.02,-1.4414 6.35,-2.1485 10.01,-2.1485 2.67,0 5.11,0.2891 7.34,0.8867 2.23,0.5899 4.26,1.461 6.08,2.5899 1.83,1.1406 3.56,2.4805 5.2,4.0117 1.63,1.5313 3.24,3.2383 4.82,5.1211 l 21.65,-15.4297 c -2.47,-3.3711 -5.16,-6.4805 -8.08,-9.3398 -2.92,-2.8828 -6.23,-5.33988 -9.94,-7.42191 -3.71,-2.07813 -7.86,-3.71094 -12.46,-4.89844 C 1648.35,0.601563 1643.18,0 1637.44,0" /><path
         id="path70"
         style="fill:#1d364a;fill-opacity:1;fill-rule:evenodd;stroke:none"
         d="m 1796.46,53.9883 c 4.94,0 8.75,1.1211 11.42,3.3398 2.66,2.2305 4,5.2227 4,8.9727 v 0.3008 c 0,4.1484 -1.38,7.2382 -4.15,9.2695 -2.77,2.0273 -6.58,3.0391 -11.43,3.0391 h -18.83 V 53.9883 Z m -47.77,49.8397 h 49.1 c 8.01,0 14.78,-0.988 20.32,-2.969 5.54,-1.9684 10.04,-4.7379 13.5,-8.3004 6.13,-5.9375 9.2,-14 9.2,-24.1797 v -0.2891 c 0,-8.0195 -1.93,-14.6406 -5.79,-19.8789 -3.85,-5.2421 -9.05,-9.25 -15.57,-12.0195 L 1844.22,0 h -33.23 l -20.92,31.4492 h -0.29 -12.31 V 0 h -28.78 v 103.828" /><path
         id="path72"
         style="fill:#1d364a;fill-opacity:1;fill-rule:evenodd;stroke:none"
         d="m 1908.88,103.828 h 28.93 V 0 h -28.93 v 103.828" /><path
         id="path74"
         style="fill:#1d364a;fill-opacity:1;fill-rule:evenodd;stroke:none"
         d="m 2035.12,78.6211 h -31.15 v 25.2069 h 91.07 V 78.6211 h -31.15 V 0 h -28.77 v 78.6211" /><path
         id="path76"
         style="fill:#1d364a;fill-opacity:1;fill-rule:evenodd;stroke:none"
         d="m 2161.2,103.828 h 28.92 V 0 h -28.92 v 103.828" /><path
         id="path78"
         style="fill:#1d364a;fill-opacity:1;fill-rule:evenodd;stroke:none"
         d="m 2312.05,0 c -7.42,0 -14.39,1.33984 -20.91,4.01172 -6.53,2.66797 -12.19,6.39848 -16.99,11.19918 -4.79,4.7891 -8.6,10.4805 -11.42,17.0508 -2.82,6.5781 -4.22,13.7266 -4.22,21.4375 v 0.2891 c 0,7.5234 1.38,14.5625 4.15,21.1406 2.77,6.582 6.57,12.3125 11.42,17.2109 4.84,4.8985 10.61,8.7302 17.28,11.4882 6.68,2.774 13.97,4.16 21.88,4.16 5.34,0 10.19,-0.519 14.54,-1.558 4.35,-1.039 8.33,-2.52 11.94,-4.45 3.61,-1.929 6.87,-4.23 9.79,-6.9019 2.91,-2.6562 5.51,-5.5898 7.78,-8.75 l -21.65,-16.7578 c -2.97,3.7617 -6.23,6.7188 -9.79,8.8985 -3.56,2.1718 -7.87,3.2695 -12.91,3.2695 -3.66,0 -6.99,-0.7188 -10.01,-2.1563 -3.02,-1.4336 -5.61,-3.3828 -7.79,-5.8632 -2.17,-2.4688 -3.88,-5.3868 -5.12,-8.75 -1.23,-3.3594 -1.85,-6.918 -1.85,-10.6797 v -0.3008 c 0,-3.8477 0.62,-7.4883 1.85,-10.8985 1.24,-3.4101 2.95,-6.3515 5.12,-8.8203 2.18,-2.4687 4.77,-4.4297 7.79,-5.8593 3.02,-1.4414 6.35,-2.1485 10.01,-2.1485 2.67,0 5.11,0.2891 7.34,0.8867 2.23,0.5899 4.26,1.461 6.08,2.5899 1.83,1.1406 3.56,2.4805 5.2,4.0117 1.63,1.5313 3.24,3.2383 4.82,5.1211 l 21.65,-15.4297 c -2.47,-3.3711 -5.16,-6.4805 -8.08,-9.3398 -2.92,-2.8828 -6.23,-5.33988 -9.94,-7.42191 -3.71,-2.07813 -7.86,-3.71094 -12.46,-4.89844 C 2322.96,0.601563 2317.79,0 2312.05,0" /><path
         id="path80"
         style="fill:#1d364a;fill-opacity:1;fill-rule:evenodd;stroke:none"
         d="m 2484.41,40.7891 -11.57,29.5195 -11.72,-29.5195 z M 2459.2,104.57 h 27.74 L 2531.14,0 h -30.85 l -7.57,18.5508 h -40.05 L 2445.25,0 H 2415 l 44.2,104.57" /><path
         id="path82"
         style="fill:#1d364a;fill-opacity:1;fill-rule:evenodd;stroke:none"
         d="m 2594.18,103.828 h 28.78 V 25.2188 h 50.28 V 0 h -79.06 v 103.828" /><path
         id="path84"
         style="fill:#1d364a;fill-opacity:1;fill-rule:evenodd;stroke:none"
         d="M 0,60.8906 H 422.285 V 47.1016 H 0 v 13.789" /></g></g></svg>