<?xml version="1.0" encoding="UTF-8" standalone="no"?>
<svg
   xmlns:dc="http://purl.org/dc/elements/1.1/"
   xmlns:cc="http://creativecommons.org/ns#"
   xmlns:rdf="http://www.w3.org/1999/02/22-rdf-syntax-ns#"
   xmlns:svg="http://www.w3.org/2000/svg"
   xmlns="http://www.w3.org/2000/svg"
   xmlns:sodipodi="http://sodipodi.sourceforge.net/DTD/sodipodi-0.dtd"
   xmlns:inkscape="http://www.inkscape.org/namespaces/inkscape"
   viewBox="0 0 198.2368 101.7336"
   height="101.7336"
   width="198.2368"
   xml:space="preserve"
   id="svg2"
   version="1.1"
   sodipodi:docname="awc-logo.svg"
   inkscape:version="0.92.5 (2060ec1f9f, 2020-04-08)"><sodipodi:namedview
     pagecolor="#ffffff"
     bordercolor="#666666"
     borderopacity="1"
     objecttolerance="10"
     gridtolerance="10"
     guidetolerance="10"
     inkscape:pageopacity="0"
     inkscape:pageshadow="2"
     inkscape:window-width="1700"
     inkscape:window-height="781"
     id="namedview43"
     showgrid="false"
     fit-margin-top="0"
     fit-margin-left="0"
     fit-margin-right="0"
     fit-margin-bottom="0"
     inkscape:zoom="2"
     inkscape:cx="205.45414"
     inkscape:cy="119.09894"
     inkscape:window-x="1857"
     inkscape:window-y="468"
     inkscape:window-maximized="0"
     inkscape:current-layer="svg2" /><metadata
     id="metadata8"><rdf:RDF><cc:Work
         rdf:about=""><dc:format>image/svg+xml</dc:format><dc:type
           rdf:resource="http://purl.org/dc/dcmitype/StillImage" /><dc:title></dc:title></cc:Work></rdf:RDF></metadata><defs
     id="defs6" /><g
     id="g5181"
     transform="translate(-106.21253,0.00132557)"
     style="fill:#000000"><path
       inkscape:connector-curvature="0"
       d="M 304.44933,38.14934 289.75866,63.574006 C 277.52399,42.382673 265.28933,21.190674 253.05333,-0.00132557 h 29.36933 C 289.76533,12.716007 297.10666,25.432007 304.44933,38.14934"
       style="fill:#000000;fill-opacity:1;fill-rule:evenodd;stroke:none;stroke-width:0.13333333"
       id="path44" /><path
       inkscape:connector-curvature="0"
       d="m 223.68133,101.72401 22.028,-38.14587 22.024,38.1468 14.68933,-25.424934 c -14.68533,-25.433866 -29.368,-50.867999 -44.052,-76.30133157 h -29.36933 l 25.696,44.50546557 -7.34,12.712533 c 21.98666,38.083866 -27.83867,-48.2099988 -33.04,-57.21799857 h -29.368 c 19.564,33.91599957 39.15333,67.81693157 58.732,101.72533557"
       style="fill:#000000;fill-opacity:1;fill-rule:evenodd;stroke:none;stroke-width:0.13333333"
       id="path46" /><path
       inkscape:connector-curvature="0"
       d="m 165.128,0.30534109 c 4.45733,7.72399981 4.36133,7.55466651 0,0 z M 157.60666,12.714674 c -17.132,29.671999 -34.26293,59.345199 -51.39413,89.017066 h 29.3688 c 12.236,-21.194268 24.472,-42.389067 36.71067,-63.583733 0,-0.0013 -12.748,-22.072 -14.68534,-25.433333"
       style="fill:#000000;fill-opacity:1;fill-rule:evenodd;stroke:none;stroke-width:0.13333333"
       id="path48" /><path
       inkscape:connector-curvature="0"
       d="M 164.94933,76.298406 179.632,101.73227 h 29.36799 l -29.37066,-50.872397 -14.68,25.438533"
       style="fill:#000000;fill-opacity:1;fill-rule:evenodd;stroke:none;stroke-width:0.13333333"
       id="path50" /></g></svg>