<svg width="208" height="30" viewBox="0 0 208 30" fill="none" xmlns="http://www.w3.org/2000/svg">
<path fill-rule="evenodd" clip-rule="evenodd" d="M204.378 9.23047L201.067 13.105L197.631 9.23047L194.133 9.23047L199.755 15.6434V21.9228H202.378V15.6434L208 9.23047L204.378 9.23047Z" fill="white"/>
<path fill-rule="evenodd" clip-rule="evenodd" d="M176.8 9.23047L176.8 12.0592H181.301V21.9228H183.855V12.0592H188.356V9.23047H176.8Z" fill="white"/>
<path fill-rule="evenodd" clip-rule="evenodd" d="M167.556 21.9228H169.867V9.23047H167.556L167.556 21.9228Z" fill="white"/>
<path fill-rule="evenodd" clip-rule="evenodd" d="M156.64 9.23047L153.107 17.2937L149.509 9.23047H146.756L152.401 21.9228H153.821L159.467 9.23047H156.64Z" fill="white"/>
<path fill-rule="evenodd" clip-rule="evenodd" d="M136.356 21.9228H138.667V9.23047H136.356L136.356 21.9228Z" fill="white"/>
<path fill-rule="evenodd" clip-rule="evenodd" d="M117.867 9.23047L117.867 12.0592H122.817V21.9228H125.627V12.0592H130.578V9.23047H117.867Z" fill="white"/>
<path fill-rule="evenodd" clip-rule="evenodd" d="M109.476 9.23047L105.728 13.4579L101.98 9.23047H98.2222L103.854 15.5764L98.2222 21.9228H101.98L105.728 17.6949L109.476 21.9228H113.244L107.611 15.5764L113.244 9.23047H109.476Z" fill="white"/>
<path fill-rule="evenodd" clip-rule="evenodd" d="M80.8889 9.23047V21.9228H93.6V19.1166H83.8325V16.892H89.8541V14.087H83.8325V12.0356H93.0643V9.23047L80.8889 9.23047Z" fill="white"/>
<path fill-rule="evenodd" clip-rule="evenodd" d="M71.3877 9.23047V17.0652L64.112 9.23047L62.4 9.23047V21.9228H64.9679V14.2322L65.3601 14.6414L72.1941 21.9228H73.9556V9.23047L71.3877 9.23047Z" fill="white"/>
<path fill-rule="evenodd" clip-rule="evenodd" d="M0.515214 0H15.0191C15.2243 0 15.421 0.081896 15.566 0.22764L24.86 9.5717C25.1538 9.86713 25.6259 9.87504 25.9293 9.59518L25.9537 9.5717L35.2479 0.227634C35.3929 0.0818936 35.5896 0 35.7948 0H50.3291C50.6137 0 50.8443 0.231577 50.8443 0.517241C50.8443 0.654132 50.7903 0.785441 50.694 0.882394L38.973 12.6877C38.7721 12.89 38.4459 12.8906 38.2444 12.6889C38.1474 12.5918 38.0929 12.46 38.0929 12.3226V8.55109C38.0929 8.26543 37.8622 8.03385 37.5777 8.03385C37.441 8.03385 37.3099 8.08836 37.2133 8.18538L30.973 14.4513C30.6713 14.7544 30.6713 15.2456 30.9731 15.5486L37.2134 21.8129C37.4146 22.0148 37.7408 22.0148 37.942 21.8128C38.0386 21.7158 38.0929 21.5843 38.0929 21.4471V17.6759C38.0929 17.3903 38.3235 17.1587 38.6081 17.1587C38.745 17.1587 38.8763 17.2134 38.973 17.3108L50.6941 29.1176C50.895 29.32 50.8945 29.6475 50.6929 29.8491C50.5964 29.9457 50.4656 30 50.3292 30H35.796C35.5902 30 35.3928 29.9175 35.2477 29.7708L25.9552 20.3768C25.6622 20.0805 25.1901 20.0713 24.8859 20.3503L24.8585 20.3768L15.566 29.7708C15.4209 29.9175 15.2235 30 15.0176 30H0.515214C0.230669 30 1.07905e-08 29.7684 1.07905e-08 29.4828C1.07905e-08 29.346 0.0539167 29.2149 0.149963 29.118L13.5979 15.5472C13.8978 15.2445 13.8978 14.7555 13.5979 14.4528L0.149963 0.882041C-0.0507202 0.679524 -0.0498778 0.352026 0.151845 0.150553C0.248388 0.0541289 0.379032 0 0.515214 0Z" fill="white"/>
</svg>
